<svg width="322" height="100" viewBox="0 0 322 100" fill="none" xmlns="http://www.w3.org/2000/svg">
<g filter="url(#filter0_d_3_28)">
<path d="M30.36 84.1C28.9867 84.1 27.7467 83.7933 26.64 83.18C25.5467 82.5667 24.68 81.72 24.04 80.64C23.4133 79.56 23.1 78.3467 23.1 77C23.1 75.6533 23.4133 74.44 24.04 73.36C24.68 72.28 25.5467 71.4333 26.64 70.82C27.7467 70.2067 28.9867 69.9 30.36 69.9C31.3733 69.9 32.3067 70.0667 33.16 70.4C34.0133 70.72 34.74 71.2 35.34 71.84L34.7 72.5C33.58 71.3933 32.1467 70.84 30.4 70.84C29.2267 70.84 28.16 71.1067 27.2 71.64C26.24 72.1733 25.4867 72.9133 24.94 73.86C24.3933 74.7933 24.12 75.84 24.12 77C24.12 78.16 24.3933 79.2133 24.94 80.16C25.4867 81.0933 26.24 81.8267 27.2 82.36C28.16 82.8933 29.2267 83.16 30.4 83.16C32.1333 83.16 33.5667 82.6 34.7 81.48L35.34 82.14C34.74 82.78 34.0067 83.2667 33.14 83.6C32.2867 83.9333 31.36 84.1 30.36 84.1ZM38.4364 73.56H39.4364V84H38.4364V73.56ZM38.9364 71.02C38.7097 71.02 38.5164 70.9467 38.3564 70.8C38.1964 70.64 38.1164 70.4467 38.1164 70.22C38.1164 69.9933 38.1964 69.8 38.3564 69.64C38.5164 69.48 38.7097 69.4 38.9364 69.4C39.1631 69.4 39.3564 69.48 39.5164 69.64C39.6764 69.7867 39.7564 69.9733 39.7564 70.2C39.7564 70.4267 39.6764 70.62 39.5164 70.78C39.3564 70.94 39.1631 71.02 38.9364 71.02ZM48.8313 83.34C48.5779 83.58 48.2579 83.7667 47.8713 83.9C47.4979 84.02 47.1046 84.08 46.6913 84.08C45.7846 84.08 45.0846 83.8333 44.5913 83.34C44.0979 82.8333 43.8513 82.1333 43.8513 81.24V74.42H41.9313V73.56H43.8513V71.28H44.8513V73.56H48.1713V74.42H44.8513V81.14C44.8513 81.82 45.0113 82.34 45.3313 82.7C45.6646 83.0467 46.1513 83.22 46.7913 83.22C47.4446 83.22 47.9846 83.0267 48.4113 82.64L48.8313 83.34ZM59.8047 73.56L54.4447 85.42C54.0447 86.34 53.578 86.9933 53.0447 87.38C52.5247 87.7667 51.9047 87.96 51.1847 87.96C50.7047 87.96 50.2514 87.88 49.8247 87.72C49.4114 87.56 49.058 87.3267 48.7647 87.02L49.2647 86.26C49.798 86.8067 50.4447 87.08 51.2047 87.08C51.7114 87.08 52.1447 86.94 52.5047 86.66C52.8647 86.38 53.198 85.9 53.5047 85.22L54.0647 83.96L49.3647 73.56H50.4247L54.6047 82.9L58.7847 73.56H59.8047ZM73.3678 84.1C71.9945 84.1 70.7545 83.7933 69.6478 83.18C68.5545 82.5667 67.6878 81.72 67.0478 80.64C66.4211 79.56 66.1078 78.3467 66.1078 77C66.1078 75.6533 66.4211 74.44 67.0478 73.36C67.6878 72.28 68.5545 71.4333 69.6478 70.82C70.7545 70.2067 71.9945 69.9 73.3678 69.9C74.3811 69.9 75.3145 70.0667 76.1678 70.4C77.0211 70.72 77.7478 71.2 78.3478 71.84L77.7078 72.5C76.5878 71.3933 75.1545 70.84 73.4078 70.84C72.2345 70.84 71.1678 71.1067 70.2078 71.64C69.2478 72.1733 68.4945 72.9133 67.9478 73.86C67.4011 74.7933 67.1278 75.84 67.1278 77C67.1278 78.16 67.4011 79.2133 67.9478 80.16C68.4945 81.0933 69.2478 81.8267 70.2078 82.36C71.1678 82.8933 72.2345 83.16 73.4078 83.16C75.1411 83.16 76.5745 82.6 77.7078 81.48L78.3478 82.14C77.7478 82.78 77.0145 83.2667 76.1478 83.6C75.2945 83.9333 74.3678 84.1 73.3678 84.1ZM81.4442 73.56H82.4442V84H81.4442V73.56ZM81.9442 71.02C81.7176 71.02 81.5242 70.9467 81.3642 70.8C81.2042 70.64 81.1242 70.4467 81.1242 70.22C81.1242 69.9933 81.2042 69.8 81.3642 69.64C81.5242 69.48 81.7176 69.4 81.9442 69.4C82.1709 69.4 82.3642 69.48 82.5242 69.64C82.6842 69.7867 82.7642 69.9733 82.7642 70.2C82.7642 70.4267 82.6842 70.62 82.5242 70.78C82.3642 70.94 82.1709 71.02 81.9442 71.02ZM91.8391 83.34C91.5857 83.58 91.2657 83.7667 90.8791 83.9C90.5057 84.02 90.1124 84.08 89.6991 84.08C88.7924 84.08 88.0924 83.8333 87.5991 83.34C87.1057 82.8333 86.8591 82.1333 86.8591 81.24V74.42H84.9391V73.56H86.8591V71.28H87.8591V73.56H91.1791V74.42H87.8591V81.14C87.8591 81.82 88.0191 82.34 88.3391 82.7C88.6724 83.0467 89.1591 83.22 89.7991 83.22C90.4524 83.22 90.9924 83.0267 91.4191 82.64L91.8391 83.34ZM102.813 73.56L97.4525 85.42C97.0525 86.34 96.5858 86.9933 96.0525 87.38C95.5325 87.7667 94.9125 87.96 94.1925 87.96C93.7125 87.96 93.2592 87.88 92.8325 87.72C92.4192 87.56 92.0658 87.3267 91.7725 87.02L92.2725 86.26C92.8058 86.8067 93.4525 87.08 94.2125 87.08C94.7192 87.08 95.1525 86.94 95.5125 86.66C95.8725 86.38 96.2058 85.9 96.5125 85.22L97.0725 83.96L92.3725 73.56H93.4325L97.6125 82.9L101.793 73.56H102.813ZM112.636 70V84H111.616V70.92H108.196V70H112.636ZM121.646 84.1C120.58 84.1 119.626 83.8133 118.786 83.24C117.96 82.6533 117.313 81.8267 116.846 80.76C116.393 79.6933 116.166 78.44 116.166 77C116.166 75.56 116.393 74.3067 116.846 73.24C117.313 72.1733 117.96 71.3533 118.786 70.78C119.626 70.1933 120.58 69.9 121.646 69.9C122.713 69.9 123.66 70.1933 124.486 70.78C125.326 71.3533 125.973 72.1733 126.426 73.24C126.893 74.3067 127.126 75.56 127.126 77C127.126 78.44 126.893 79.6933 126.426 80.76C125.973 81.8267 125.326 82.6533 124.486 83.24C123.66 83.8133 122.713 84.1 121.646 84.1ZM121.646 83.16C122.526 83.16 123.3 82.92 123.966 82.44C124.646 81.9467 125.173 81.24 125.546 80.32C125.92 79.3867 126.106 78.28 126.106 77C126.106 75.72 125.92 74.62 125.546 73.7C125.173 72.7667 124.646 72.06 123.966 71.58C123.3 71.0867 122.526 70.84 121.646 70.84C120.766 70.84 119.986 71.0867 119.306 71.58C118.64 72.06 118.12 72.7667 117.746 73.7C117.373 74.62 117.186 75.72 117.186 77C117.186 78.28 117.373 79.3867 117.746 80.32C118.12 81.24 118.64 81.9467 119.306 82.44C119.986 82.92 120.766 83.16 121.646 83.16ZM134.81 84.1C133.744 84.1 132.79 83.8133 131.95 83.24C131.124 82.6533 130.477 81.8267 130.01 80.76C129.557 79.6933 129.33 78.44 129.33 77C129.33 75.56 129.557 74.3067 130.01 73.24C130.477 72.1733 131.124 71.3533 131.95 70.78C132.79 70.1933 133.744 69.9 134.81 69.9C135.877 69.9 136.824 70.1933 137.65 70.78C138.49 71.3533 139.137 72.1733 139.59 73.24C140.057 74.3067 140.29 75.56 140.29 77C140.29 78.44 140.057 79.6933 139.59 80.76C139.137 81.8267 138.49 82.6533 137.65 83.24C136.824 83.8133 135.877 84.1 134.81 84.1ZM134.81 83.16C135.69 83.16 136.464 82.92 137.13 82.44C137.81 81.9467 138.337 81.24 138.71 80.32C139.084 79.3867 139.27 78.28 139.27 77C139.27 75.72 139.084 74.62 138.71 73.7C138.337 72.7667 137.81 72.06 137.13 71.58C136.464 71.0867 135.69 70.84 134.81 70.84C133.93 70.84 133.15 71.0867 132.47 71.58C131.804 72.06 131.284 72.7667 130.91 73.7C130.537 74.62 130.35 75.72 130.35 77C130.35 78.28 130.537 79.3867 130.91 80.32C131.284 81.24 131.804 81.9467 132.47 82.44C133.15 82.92 133.93 83.16 134.81 83.16ZM147.975 84.1C146.908 84.1 145.955 83.8133 145.115 83.24C144.288 82.6533 143.641 81.8267 143.175 80.76C142.721 79.6933 142.495 78.44 142.495 77C142.495 75.56 142.721 74.3067 143.175 73.24C143.641 72.1733 144.288 71.3533 145.115 70.78C145.955 70.1933 146.908 69.9 147.975 69.9C149.041 69.9 149.988 70.1933 150.815 70.78C151.655 71.3533 152.301 72.1733 152.755 73.24C153.221 74.3067 153.455 75.56 153.455 77C153.455 78.44 153.221 79.6933 152.755 80.76C152.301 81.8267 151.655 82.6533 150.815 83.24C149.988 83.8133 149.041 84.1 147.975 84.1ZM147.975 83.16C148.855 83.16 149.628 82.92 150.295 82.44C150.975 81.9467 151.501 81.24 151.875 80.32C152.248 79.3867 152.435 78.28 152.435 77C152.435 75.72 152.248 74.62 151.875 73.7C151.501 72.7667 150.975 72.06 150.295 71.58C149.628 71.0867 148.855 70.84 147.975 70.84C147.095 70.84 146.315 71.0867 145.635 71.58C144.968 72.06 144.448 72.7667 144.075 73.7C143.701 74.62 143.515 75.72 143.515 77C143.515 78.28 143.701 79.3867 144.075 80.32C144.448 81.24 144.968 81.9467 145.635 82.44C146.315 82.92 147.095 83.16 147.975 83.16ZM165.815 84.1C164.789 84.1 163.809 83.9267 162.875 83.58C161.955 83.22 161.235 82.76 160.715 82.2L161.175 81.44C161.669 81.96 162.329 82.3867 163.155 82.72C163.995 83.04 164.875 83.2 165.795 83.2C167.129 83.2 168.135 82.9467 168.815 82.44C169.495 81.9333 169.835 81.2733 169.835 80.46C169.835 79.8333 169.655 79.3333 169.295 78.96C168.935 78.5867 168.489 78.3 167.955 78.1C167.422 77.9 166.702 77.6933 165.795 77.48C164.769 77.2267 163.942 76.98 163.315 76.74C162.702 76.5 162.175 76.1333 161.735 75.64C161.309 75.1333 161.095 74.46 161.095 73.62C161.095 72.94 161.275 72.32 161.635 71.76C161.995 71.1867 162.542 70.7333 163.275 70.4C164.022 70.0667 164.949 69.9 166.055 69.9C166.829 69.9 167.589 70.0133 168.335 70.24C169.082 70.4667 169.729 70.7733 170.275 71.16L169.895 71.98C169.335 71.5933 168.715 71.3 168.035 71.1C167.369 70.9 166.709 70.8 166.055 70.8C164.762 70.8 163.782 71.06 163.115 71.58C162.449 72.1 162.115 72.7733 162.115 73.6C162.115 74.2267 162.295 74.7267 162.655 75.1C163.015 75.4733 163.462 75.76 163.995 75.96C164.529 76.16 165.255 76.3733 166.175 76.6C167.202 76.8533 168.022 77.1 168.635 77.34C169.249 77.58 169.769 77.9467 170.195 78.44C170.635 78.92 170.855 79.5733 170.855 80.4C170.855 81.08 170.669 81.7 170.295 82.26C169.935 82.82 169.375 83.2667 168.615 83.6C167.855 83.9333 166.922 84.1 165.815 84.1ZM179.183 83.34C178.929 83.58 178.609 83.7667 178.223 83.9C177.849 84.02 177.456 84.08 177.043 84.08C176.136 84.08 175.436 83.8333 174.943 83.34C174.449 82.8333 174.203 82.1333 174.203 81.24V74.42H172.283V73.56H174.203V71.28H175.203V73.56H178.523V74.42H175.203V81.14C175.203 81.82 175.363 82.34 175.683 82.7C176.016 83.0467 176.503 83.22 177.143 83.22C177.796 83.22 178.336 83.0267 178.763 82.64L179.183 83.34ZM182.932 75.84C183.252 75.08 183.752 74.5 184.432 74.1C185.112 73.6867 185.938 73.48 186.912 73.48V74.46L186.672 74.44C185.512 74.44 184.605 74.8067 183.952 75.54C183.298 76.26 182.972 77.2667 182.972 78.56V84H181.972V73.56H182.932V75.84ZM198.389 79.02H189.409C189.436 79.8333 189.643 80.56 190.029 81.2C190.416 81.8267 190.936 82.3133 191.589 82.66C192.256 83.0067 193.003 83.18 193.829 83.18C194.509 83.18 195.136 83.06 195.709 82.82C196.296 82.5667 196.783 82.2 197.169 81.72L197.749 82.38C197.296 82.9267 196.723 83.3467 196.029 83.64C195.349 83.9333 194.609 84.08 193.809 84.08C192.769 84.08 191.843 83.8533 191.029 83.4C190.216 82.9467 189.576 82.32 189.109 81.52C188.656 80.72 188.429 79.8067 188.429 78.78C188.429 77.7667 188.643 76.86 189.069 76.06C189.509 75.2467 190.109 74.6133 190.869 74.16C191.629 73.7067 192.483 73.48 193.429 73.48C194.376 73.48 195.223 73.7067 195.969 74.16C196.729 74.6 197.323 75.22 197.749 76.02C198.189 76.82 198.409 77.7267 198.409 78.74L198.389 79.02ZM193.429 74.36C192.696 74.36 192.036 74.5267 191.449 74.86C190.863 75.18 190.389 75.64 190.029 76.24C189.683 76.8267 189.483 77.4933 189.429 78.24H197.429C197.389 77.4933 197.189 76.8267 196.829 76.24C196.469 75.6533 195.996 75.1933 195.409 74.86C194.823 74.5267 194.163 74.36 193.429 74.36ZM210.323 79.02H201.343C201.369 79.8333 201.576 80.56 201.963 81.2C202.349 81.8267 202.869 82.3133 203.523 82.66C204.189 83.0067 204.936 83.18 205.763 83.18C206.443 83.18 207.069 83.06 207.643 82.82C208.229 82.5667 208.716 82.2 209.103 81.72L209.683 82.38C209.229 82.9267 208.656 83.3467 207.963 83.64C207.283 83.9333 206.543 84.08 205.743 84.08C204.703 84.08 203.776 83.8533 202.963 83.4C202.149 82.9467 201.509 82.32 201.043 81.52C200.589 80.72 200.363 79.8067 200.363 78.78C200.363 77.7667 200.576 76.86 201.003 76.06C201.443 75.2467 202.043 74.6133 202.803 74.16C203.563 73.7067 204.416 73.48 205.363 73.48C206.309 73.48 207.156 73.7067 207.903 74.16C208.663 74.6 209.256 75.22 209.683 76.02C210.123 76.82 210.343 77.7267 210.343 78.74L210.323 79.02ZM205.363 74.36C204.629 74.36 203.969 74.5267 203.383 74.86C202.796 75.18 202.323 75.64 201.963 76.24C201.616 76.8267 201.416 77.4933 201.363 78.24H209.363C209.323 77.4933 209.123 76.8267 208.763 76.24C208.403 75.6533 207.929 75.1933 207.343 74.86C206.756 74.5267 206.096 74.36 205.363 74.36ZM218.616 83.34C218.363 83.58 218.043 83.7667 217.656 83.9C217.283 84.02 216.89 84.08 216.476 84.08C215.57 84.08 214.87 83.8333 214.376 83.34C213.883 82.8333 213.636 82.1333 213.636 81.24V74.42H211.716V73.56H213.636V71.28H214.636V73.56H217.956V74.42H214.636V81.14C214.636 81.82 214.796 82.34 215.116 82.7C215.45 83.0467 215.936 83.22 216.576 83.22C217.23 83.22 217.77 83.0267 218.196 82.64L218.616 83.34ZM229.182 84.08C228.342 84.08 227.542 83.9533 226.782 83.7C226.022 83.4467 225.429 83.1267 225.002 82.74L225.462 81.94C225.889 82.3 226.435 82.6 227.102 82.84C227.782 83.08 228.489 83.2 229.222 83.2C230.275 83.2 231.049 83.0267 231.542 82.68C232.049 82.3333 232.302 81.8533 232.302 81.24C232.302 80.8 232.162 80.4533 231.882 80.2C231.615 79.9467 231.282 79.76 230.882 79.64C230.482 79.52 229.929 79.3933 229.222 79.26C228.395 79.1133 227.729 78.9533 227.222 78.78C226.715 78.6067 226.282 78.3267 225.922 77.94C225.562 77.5533 225.382 77.02 225.382 76.34C225.382 75.5133 225.722 74.8333 226.402 74.3C227.095 73.7533 228.075 73.48 229.342 73.48C230.009 73.48 230.669 73.5733 231.322 73.76C231.975 73.9467 232.509 74.1933 232.922 74.5L232.462 75.3C232.035 74.9933 231.549 74.76 231.002 74.6C230.455 74.44 229.895 74.36 229.322 74.36C228.349 74.36 227.615 74.54 227.122 74.9C226.629 75.26 226.382 75.7333 226.382 76.32C226.382 76.7867 226.522 77.1533 226.802 77.42C227.082 77.6733 227.422 77.8667 227.822 78C228.235 78.12 228.809 78.2533 229.542 78.4C230.355 78.5467 231.009 78.7067 231.502 78.88C232.009 79.04 232.435 79.3067 232.782 79.68C233.129 80.0533 233.302 80.5667 233.302 81.22C233.302 82.0867 232.942 82.78 232.222 83.3C231.502 83.82 230.489 84.08 229.182 84.08ZM241.273 83.34C241.019 83.58 240.699 83.7667 240.313 83.9C239.939 84.02 239.546 84.08 239.133 84.08C238.226 84.08 237.526 83.8333 237.033 83.34C236.539 82.8333 236.293 82.1333 236.293 81.24V74.42H234.373V73.56H236.293V71.28H237.293V73.56H240.613V74.42H237.293V81.14C237.293 81.82 237.453 82.34 237.773 82.7C238.106 83.0467 238.593 83.22 239.233 83.22C239.886 83.22 240.426 83.0267 240.853 82.64L241.273 83.34ZM244.137 84.08C243.91 84.08 243.71 84 243.537 83.84C243.377 83.6667 243.297 83.46 243.297 83.22C243.297 82.98 243.377 82.78 243.537 82.62C243.71 82.46 243.91 82.38 244.137 82.38C244.363 82.38 244.557 82.46 244.717 82.62C244.89 82.78 244.977 82.98 244.977 83.22C244.977 83.46 244.89 83.6667 244.717 83.84C244.557 84 244.363 84.08 244.137 84.08ZM255.897 70V84H254.877V70.92H251.457V70H255.897ZM262.948 70V84H261.928V70.92H258.508V70H262.948ZM266.619 78.18H271.759V79.08H266.619V78.18ZM277.304 70V84H276.284V70.92H272.864V70H277.304ZM284.354 70V84H283.334V70.92H279.914V70H284.354Z" fill="#873F91"/>
</g>
<g filter="url(#filter1_d_3_28)">
<path d="M33.73 50.09C31.77 50.09 29.98 49.62 28.36 48.68C26.76 47.74 25.49 46.46 24.55 44.84C23.63 43.22 23.17 41.44 23.17 39.5C23.17 37.56 23.63 35.78 24.55 34.16C25.49 32.54 26.77 31.26 28.39 30.32C30.01 29.38 31.81 28.91 33.79 28.91C35.77 28.91 37.56 29.37 39.16 30.29C40.78 31.21 42.05 32.48 42.97 34.1C43.89 35.7 44.35 37.48 44.35 39.44C44.35 41.4 43.88 43.2 42.94 44.84C42 46.46 40.72 47.74 39.1 48.68C37.48 49.62 35.69 50.09 33.73 50.09ZM33.73 48.14C35.33 48.14 36.78 47.76 38.08 47C39.4 46.22 40.43 45.17 41.17 43.85C41.93 42.51 42.31 41.04 42.31 39.44C42.31 37.82 41.94 36.36 41.2 35.06C40.48 33.76 39.47 32.74 38.17 32C36.87 31.24 35.41 30.86 33.79 30.86C32.17 30.86 30.71 31.24 29.41 32C28.11 32.76 27.09 33.8 26.35 35.12C25.61 36.44 25.24 37.9 25.24 39.5C25.24 41.1 25.61 42.56 26.35 43.88C27.09 45.2 28.1 46.24 29.38 47C30.68 47.76 32.13 48.14 33.73 48.14ZM34.12 45.56C32.9 45.56 31.8 45.3 30.82 44.78C29.86 44.26 29.1 43.54 28.54 42.62C28 41.7 27.73 40.66 27.73 39.5C27.73 38.34 28 37.3 28.54 36.38C29.1 35.46 29.86 34.74 30.82 34.22C31.8 33.7 32.9 33.44 34.12 33.44C35.3 33.44 36.34 33.7 37.24 34.22C38.14 34.72 38.81 35.41 39.25 36.29L36.55 37.88C36.01 36.94 35.19 36.47 34.09 36.47C33.29 36.47 32.61 36.75 32.05 37.31C31.51 37.85 31.24 38.58 31.24 39.5C31.24 40.42 31.51 41.16 32.05 41.72C32.61 42.26 33.29 42.53 34.09 42.53C35.19 42.53 36.01 42.06 36.55 41.12L39.25 42.68C38.81 43.58 38.14 44.29 37.24 44.81C36.34 45.31 35.3 45.56 34.12 45.56ZM61.4008 32.9V38.45H71.1208V42.35H61.4008V50H56.5408V29H72.4108V32.9H61.4008ZM75.078 33.86H79.758V50H75.078V33.86ZM77.418 31.61C76.558 31.61 75.858 31.36 75.318 30.86C74.778 30.36 74.508 29.74 74.508 29C74.508 28.26 74.778 27.64 75.318 27.14C75.858 26.64 76.558 26.39 77.418 26.39C78.278 26.39 78.978 26.63 79.518 27.11C80.058 27.59 80.328 28.19 80.328 28.91C80.328 29.69 80.058 30.34 79.518 30.86C78.978 31.36 78.278 31.61 77.418 31.61ZM94.5114 49.22C94.0514 49.56 93.4814 49.82 92.8014 50C92.1414 50.16 91.4414 50.24 90.7014 50.24C88.7814 50.24 87.2914 49.75 86.2314 48.77C85.1914 47.79 84.6714 46.35 84.6714 44.45V37.82H82.1814V34.22H84.6714V30.29H89.3514V34.22H93.3714V37.82H89.3514V44.39C89.3514 45.07 89.5214 45.6 89.8614 45.98C90.2214 46.34 90.7214 46.52 91.3614 46.52C92.1014 46.52 92.7314 46.32 93.2514 45.92L94.5114 49.22ZM106.949 33.62C108.949 33.62 110.559 34.22 111.779 35.42C113.019 36.62 113.639 38.4 113.639 40.76V50H108.959V41.48C108.959 40.2 108.679 39.25 108.119 38.63C107.559 37.99 106.749 37.67 105.689 37.67C104.509 37.67 103.569 38.04 102.869 38.78C102.169 39.5 101.819 40.58 101.819 42.02V50H97.1385V33.86H101.609V35.75C102.229 35.07 102.999 34.55 103.919 34.19C104.839 33.81 105.849 33.62 106.949 33.62ZM133.866 41.99C133.866 42.05 133.836 42.47 133.776 43.25H121.566C121.786 44.25 122.306 45.04 123.126 45.62C123.946 46.2 124.966 46.49 126.186 46.49C127.026 46.49 127.766 46.37 128.406 46.13C129.066 45.87 129.676 45.47 130.236 44.93L132.726 47.63C131.206 49.37 128.986 50.24 126.066 50.24C124.246 50.24 122.636 49.89 121.236 49.19C119.836 48.47 118.756 47.48 117.996 46.22C117.236 44.96 116.856 43.53 116.856 41.93C116.856 40.35 117.226 38.93 117.966 37.67C118.726 36.39 119.756 35.4 121.056 34.7C122.376 33.98 123.846 33.62 125.466 33.62C127.046 33.62 128.476 33.96 129.756 34.64C131.036 35.32 132.036 36.3 132.756 37.58C133.496 38.84 133.866 40.31 133.866 41.99ZM125.496 37.16C124.436 37.16 123.546 37.46 122.826 38.06C122.106 38.66 121.666 39.48 121.506 40.52H129.456C129.296 39.5 128.856 38.69 128.136 38.09C127.416 37.47 126.536 37.16 125.496 37.16ZM142.412 50.24C141.072 50.24 139.762 50.08 138.482 49.76C137.202 49.42 136.182 49 135.422 48.5L136.982 45.14C137.702 45.6 138.572 45.98 139.592 46.28C140.612 46.56 141.612 46.7 142.592 46.7C144.572 46.7 145.562 46.21 145.562 45.23C145.562 44.77 145.292 44.44 144.752 44.24C144.212 44.04 143.382 43.87 142.262 43.73C140.942 43.53 139.852 43.3 138.992 43.04C138.132 42.78 137.382 42.32 136.742 41.66C136.122 41 135.812 40.06 135.812 38.84C135.812 37.82 136.102 36.92 136.682 36.14C137.282 35.34 138.142 34.72 139.262 34.28C140.402 33.84 141.742 33.62 143.282 33.62C144.422 33.62 145.552 33.75 146.672 34.01C147.812 34.25 148.752 34.59 149.492 35.03L147.932 38.36C146.512 37.56 144.962 37.16 143.282 37.16C142.282 37.16 141.532 37.3 141.032 37.58C140.532 37.86 140.282 38.22 140.282 38.66C140.282 39.16 140.552 39.51 141.092 39.71C141.632 39.91 142.492 40.1 143.672 40.28C144.992 40.5 146.072 40.74 146.912 41C147.752 41.24 148.482 41.69 149.102 42.35C149.722 43.01 150.032 43.93 150.032 45.11C150.032 46.11 149.732 47 149.132 47.78C148.532 48.56 147.652 49.17 146.492 49.61C145.352 50.03 143.992 50.24 142.412 50.24ZM158.35 50.24C157.01 50.24 155.7 50.08 154.42 49.76C153.14 49.42 152.12 49 151.36 48.5L152.92 45.14C153.64 45.6 154.51 45.98 155.53 46.28C156.55 46.56 157.55 46.7 158.53 46.7C160.51 46.7 161.5 46.21 161.5 45.23C161.5 44.77 161.23 44.44 160.69 44.24C160.15 44.04 159.32 43.87 158.2 43.73C156.88 43.53 155.79 43.3 154.93 43.04C154.07 42.78 153.32 42.32 152.68 41.66C152.06 41 151.75 40.06 151.75 38.84C151.75 37.82 152.04 36.92 152.62 36.14C153.22 35.34 154.08 34.72 155.2 34.28C156.34 33.84 157.68 33.62 159.22 33.62C160.36 33.62 161.49 33.75 162.61 34.01C163.75 34.25 164.69 34.59 165.43 35.03L163.87 38.36C162.45 37.56 160.9 37.16 159.22 37.16C158.22 37.16 157.47 37.3 156.97 37.58C156.47 37.86 156.22 38.22 156.22 38.66C156.22 39.16 156.49 39.51 157.03 39.71C157.57 39.91 158.43 40.1 159.61 40.28C160.93 40.5 162.01 40.74 162.85 41C163.69 41.24 164.42 41.69 165.04 42.35C165.66 43.01 165.97 43.93 165.97 45.11C165.97 46.11 165.67 47 165.07 47.78C164.47 48.56 163.59 49.17 162.43 49.61C161.29 50.03 159.93 50.24 158.35 50.24ZM187.733 50.36C185.593 50.36 183.653 49.9 181.913 48.98C180.193 48.04 178.833 46.75 177.833 45.11C176.853 43.45 176.363 41.58 176.363 39.5C176.363 37.42 176.853 35.56 177.833 33.92C178.833 32.26 180.193 30.97 181.913 30.05C183.653 29.11 185.603 28.64 187.763 28.64C189.583 28.64 191.223 28.96 192.683 29.6C194.163 30.24 195.403 31.16 196.403 32.36L193.283 35.24C191.863 33.6 190.103 32.78 188.003 32.78C186.703 32.78 185.543 33.07 184.523 33.65C183.503 34.21 182.703 35 182.123 36.02C181.563 37.04 181.283 38.2 181.283 39.5C181.283 40.8 181.563 41.96 182.123 42.98C182.703 44 183.503 44.8 184.523 45.38C185.543 45.94 186.703 46.22 188.003 46.22C190.103 46.22 191.863 45.39 193.283 43.73L196.403 46.61C195.403 47.83 194.163 48.76 192.683 49.4C191.203 50.04 189.553 50.36 187.733 50.36ZM214.609 41.99C214.609 42.05 214.579 42.47 214.519 43.25H202.309C202.529 44.25 203.049 45.04 203.869 45.62C204.689 46.2 205.709 46.49 206.929 46.49C207.769 46.49 208.509 46.37 209.149 46.13C209.809 45.87 210.419 45.47 210.979 44.93L213.469 47.63C211.949 49.37 209.729 50.24 206.809 50.24C204.989 50.24 203.379 49.89 201.979 49.19C200.579 48.47 199.499 47.48 198.739 46.22C197.979 44.96 197.599 43.53 197.599 41.93C197.599 40.35 197.969 38.93 198.709 37.67C199.469 36.39 200.499 35.4 201.799 34.7C203.119 33.98 204.589 33.62 206.209 33.62C207.789 33.62 209.219 33.96 210.499 34.64C211.779 35.32 212.779 36.3 213.499 37.58C214.239 38.84 214.609 40.31 214.609 41.99ZM206.239 37.16C205.179 37.16 204.289 37.46 203.569 38.06C202.849 38.66 202.409 39.48 202.249 40.52H210.199C210.039 39.5 209.599 38.69 208.879 38.09C208.159 37.47 207.279 37.16 206.239 37.16ZM227.534 33.62C229.534 33.62 231.144 34.22 232.364 35.42C233.604 36.62 234.224 38.4 234.224 40.76V50H229.544V41.48C229.544 40.2 229.264 39.25 228.704 38.63C228.144 37.99 227.334 37.67 226.274 37.67C225.094 37.67 224.154 38.04 223.454 38.78C222.754 39.5 222.404 40.58 222.404 42.02V50H217.724V33.86H222.194V35.75C222.814 35.07 223.584 34.55 224.504 34.19C225.424 33.81 226.434 33.62 227.534 33.62ZM248.877 49.22C248.417 49.56 247.847 49.82 247.167 50C246.507 50.16 245.807 50.24 245.067 50.24C243.147 50.24 241.657 49.75 240.597 48.77C239.557 47.79 239.037 46.35 239.037 44.45V37.82H236.547V34.22H239.037V30.29H243.717V34.22H247.737V37.82H243.717V44.39C243.717 45.07 243.887 45.6 244.227 45.98C244.587 46.34 245.087 46.52 245.727 46.52C246.467 46.52 247.097 46.32 247.617 45.92L248.877 49.22ZM266.816 41.99C266.816 42.05 266.786 42.47 266.726 43.25H254.516C254.736 44.25 255.256 45.04 256.076 45.62C256.896 46.2 257.916 46.49 259.136 46.49C259.976 46.49 260.716 46.37 261.356 46.13C262.016 45.87 262.626 45.47 263.186 44.93L265.676 47.63C264.156 49.37 261.936 50.24 259.016 50.24C257.196 50.24 255.586 49.89 254.186 49.19C252.786 48.47 251.706 47.48 250.946 46.22C250.186 44.96 249.806 43.53 249.806 41.93C249.806 40.35 250.176 38.93 250.916 37.67C251.676 36.39 252.706 35.4 254.006 34.7C255.326 33.98 256.796 33.62 258.416 33.62C259.996 33.62 261.426 33.96 262.706 34.64C263.986 35.32 264.986 36.3 265.706 37.58C266.446 38.84 266.816 40.31 266.816 41.99ZM258.446 37.16C257.386 37.16 256.496 37.46 255.776 38.06C255.056 38.66 254.616 39.48 254.456 40.52H262.406C262.246 39.5 261.806 38.69 261.086 38.09C260.366 37.47 259.486 37.16 258.446 37.16ZM274.401 35.99C274.961 35.21 275.711 34.62 276.651 34.22C277.611 33.82 278.711 33.62 279.951 33.62V37.94C279.431 37.9 279.081 37.88 278.901 37.88C277.561 37.88 276.511 38.26 275.751 39.02C274.991 39.76 274.611 40.88 274.611 42.38V50H269.931V33.86H274.401V35.99Z" fill="#873F91"/>
</g>
<defs>
<filter id="filter0_d_3_28" x="19.1" y="69.4" width="269.254" height="26.56" filterUnits="userSpaceOnUse" color-interpolation-filters="sRGB">
<feFlood flood-opacity="0" result="BackgroundImageFix"/>
<feColorMatrix in="SourceAlpha" type="matrix" values="0 0 0 0 0 0 0 0 0 0 0 0 0 0 0 0 0 0 127 0" result="hardAlpha"/>
<feOffset dy="4"/>
<feGaussianBlur stdDeviation="2"/>
<feComposite in2="hardAlpha" operator="out"/>
<feColorMatrix type="matrix" values="0 0 0 0 0 0 0 0 0 0 0 0 0 0 0 0 0 0 0.25 0"/>
<feBlend mode="normal" in2="BackgroundImageFix" result="effect1_dropShadow_3_28"/>
<feBlend mode="normal" in="SourceGraphic" in2="effect1_dropShadow_3_28" result="shape"/>
</filter>
<filter id="filter1_d_3_28" x="19.17" y="26.39" width="264.781" height="31.97" filterUnits="userSpaceOnUse" color-interpolation-filters="sRGB">
<feFlood flood-opacity="0" result="BackgroundImageFix"/>
<feColorMatrix in="SourceAlpha" type="matrix" values="0 0 0 0 0 0 0 0 0 0 0 0 0 0 0 0 0 0 127 0" result="hardAlpha"/>
<feOffset dy="4"/>
<feGaussianBlur stdDeviation="2"/>
<feComposite in2="hardAlpha" operator="out"/>
<feColorMatrix type="matrix" values="0 0 0 0 0 0 0 0 0 0 0 0 0 0 0 0 0 0 0.25 0"/>
<feBlend mode="normal" in2="BackgroundImageFix" result="effect1_dropShadow_3_28"/>
<feBlend mode="normal" in="SourceGraphic" in2="effect1_dropShadow_3_28" result="shape"/>
</filter>
</defs>
</svg>
