<svg width="564" height="121" viewBox="0 0 564 121" fill="none" xmlns="http://www.w3.org/2000/svg">
<g filter="url(#filter0_d_3_4)">
<path d="M252.437 90.24L248.537 101H245.537L243.117 94.32L240.617 101H237.617L233.737 90.24H236.677L239.217 97.52L241.857 90.24H244.497L247.057 97.52L249.677 90.24H252.437ZM264.134 95.66C264.134 95.7 264.114 95.98 264.074 96.5H255.934C256.081 97.1667 256.428 97.6933 256.974 98.08C257.521 98.4667 258.201 98.66 259.014 98.66C259.574 98.66 260.068 98.58 260.494 98.42C260.934 98.2467 261.341 97.98 261.714 97.62L263.374 99.42C262.361 100.58 260.881 101.16 258.934 101.16C257.721 101.16 256.648 100.927 255.714 100.46C254.781 99.98 254.061 99.32 253.554 98.48C253.048 97.64 252.794 96.6867 252.794 95.62C252.794 94.5667 253.041 93.62 253.534 92.78C254.041 91.9267 254.728 91.2667 255.594 90.8C256.474 90.32 257.454 90.08 258.534 90.08C259.588 90.08 260.541 90.3067 261.394 90.76C262.248 91.2133 262.914 91.8667 263.394 92.72C263.888 93.56 264.134 94.54 264.134 95.66ZM258.554 92.44C257.848 92.44 257.254 92.64 256.774 93.04C256.294 93.44 256.001 93.9867 255.894 94.68H261.194C261.088 94 260.794 93.46 260.314 93.06C259.834 92.6467 259.248 92.44 258.554 92.44ZM266.211 86.16H269.331V101H266.211V86.16ZM277.427 101.16C276.28 101.16 275.247 100.927 274.327 100.46C273.42 99.98 272.707 99.32 272.187 98.48C271.68 97.64 271.427 96.6867 271.427 95.62C271.427 94.5533 271.68 93.6 272.187 92.76C272.707 91.92 273.42 91.2667 274.327 90.8C275.247 90.32 276.28 90.08 277.427 90.08C278.56 90.08 279.547 90.32 280.387 90.8C281.24 91.2667 281.86 91.94 282.247 92.82L279.827 94.12C279.267 93.1333 278.46 92.64 277.407 92.64C276.594 92.64 275.92 92.9067 275.387 93.44C274.854 93.9733 274.587 94.7 274.587 95.62C274.587 96.54 274.854 97.2667 275.387 97.8C275.92 98.3333 276.594 98.6 277.407 98.6C278.474 98.6 279.28 98.1067 279.827 97.12L282.247 98.44C281.86 99.2933 281.24 99.96 280.387 100.44C279.547 100.92 278.56 101.16 277.427 101.16ZM289.027 101.16C287.893 101.16 286.873 100.927 285.967 100.46C285.073 99.98 284.373 99.32 283.867 98.48C283.36 97.64 283.107 96.6867 283.107 95.62C283.107 94.5533 283.36 93.6 283.867 92.76C284.373 91.92 285.073 91.2667 285.967 90.8C286.873 90.32 287.893 90.08 289.027 90.08C290.16 90.08 291.173 90.32 292.067 90.8C292.96 91.2667 293.66 91.92 294.167 92.76C294.673 93.6 294.927 94.5533 294.927 95.62C294.927 96.6867 294.673 97.64 294.167 98.48C293.66 99.32 292.96 99.98 292.067 100.46C291.173 100.927 290.16 101.16 289.027 101.16ZM289.027 98.6C289.827 98.6 290.48 98.3333 290.987 97.8C291.507 97.2533 291.767 96.5267 291.767 95.62C291.767 94.7133 291.507 93.9933 290.987 93.46C290.48 92.9133 289.827 92.64 289.027 92.64C288.227 92.64 287.567 92.9133 287.047 93.46C286.527 93.9933 286.267 94.7133 286.267 95.62C286.267 96.5267 286.527 97.2533 287.047 97.8C287.567 98.3333 288.227 98.6 289.027 98.6ZM310.792 90.08C312.139 90.08 313.206 90.48 313.992 91.28C314.792 92.0667 315.192 93.2533 315.192 94.84V101H312.072V95.32C312.072 94.4667 311.892 93.8333 311.532 93.42C311.186 92.9933 310.686 92.78 310.032 92.78C309.299 92.78 308.719 93.02 308.292 93.5C307.866 93.9667 307.652 94.6667 307.652 95.6V101H304.532V95.32C304.532 93.6267 303.852 92.78 302.492 92.78C301.772 92.78 301.199 93.02 300.772 93.5C300.346 93.9667 300.132 94.6667 300.132 95.6V101H297.012V90.24H299.992V91.48C300.392 91.0267 300.879 90.68 301.452 90.44C302.039 90.2 302.679 90.08 303.372 90.08C304.132 90.08 304.819 90.2333 305.432 90.54C306.046 90.8333 306.539 91.2667 306.912 91.84C307.352 91.28 307.906 90.8467 308.572 90.54C309.252 90.2333 309.992 90.08 310.792 90.08ZM328.646 95.66C328.646 95.7 328.626 95.98 328.586 96.5H320.446C320.593 97.1667 320.939 97.6933 321.486 98.08C322.033 98.4667 322.713 98.66 323.526 98.66C324.086 98.66 324.579 98.58 325.006 98.42C325.446 98.2467 325.853 97.98 326.226 97.62L327.886 99.42C326.873 100.58 325.393 101.16 323.446 101.16C322.233 101.16 321.159 100.927 320.226 100.46C319.293 99.98 318.573 99.32 318.066 98.48C317.559 97.64 317.306 96.6867 317.306 95.62C317.306 94.5667 317.553 93.62 318.046 92.78C318.553 91.9267 319.239 91.2667 320.106 90.8C320.986 90.32 321.966 90.08 323.046 90.08C324.099 90.08 325.053 90.3067 325.906 90.76C326.759 91.2133 327.426 91.8667 327.906 92.72C328.399 93.56 328.646 94.54 328.646 95.66ZM323.066 92.44C322.359 92.44 321.766 92.64 321.286 93.04C320.806 93.44 320.513 93.9867 320.406 94.68H325.706C325.599 94 325.306 93.46 324.826 93.06C324.346 92.6467 323.759 92.44 323.066 92.44Z" fill="#873F91"/>
</g>
<g filter="url(#filter1_d_3_4)">
<path d="M84.1888 28.08V38.44H102.333V45.72H84.1888V60H75.1168V20.8H104.741V28.08H84.1888ZM109.72 29.872H118.456V60H109.72V29.872ZM114.088 25.672C112.482 25.672 111.176 25.2053 110.168 24.272C109.16 23.3387 108.656 22.1813 108.656 20.8C108.656 19.4187 109.16 18.2613 110.168 17.328C111.176 16.3947 112.482 15.928 114.088 15.928C115.693 15.928 117 16.376 118.008 17.272C119.016 18.168 119.52 19.288 119.52 20.632C119.52 22.088 119.016 23.3013 118.008 24.272C117 25.2053 115.693 25.672 114.088 25.672ZM145.995 58.544C145.137 59.1787 144.073 59.664 142.803 60C141.571 60.2987 140.265 60.448 138.883 60.448C135.299 60.448 132.518 59.5333 130.539 57.704C128.598 55.8747 127.627 53.1867 127.627 49.64V37.264H122.979V30.544H127.627V23.208H136.363V30.544H143.867V37.264H136.363V49.528C136.363 50.7973 136.681 51.7867 137.315 52.496C137.987 53.168 138.921 53.504 140.115 53.504C141.497 53.504 142.673 53.1307 143.643 52.384L145.995 58.544ZM169.211 29.424C172.945 29.424 175.95 30.544 178.227 32.784C180.542 35.024 181.699 38.3467 181.699 42.752V60H172.963V44.096C172.963 41.7067 172.441 39.9333 171.395 38.776C170.35 37.5813 168.838 36.984 166.859 36.984C164.657 36.984 162.902 37.6747 161.595 39.056C160.289 40.4 159.635 42.416 159.635 45.104V60H150.899V29.872H159.243V33.4C160.401 32.1307 161.838 31.16 163.555 30.488C165.273 29.7787 167.158 29.424 169.211 29.424ZM219.458 45.048C219.458 45.16 219.402 45.944 219.29 47.4H196.498C196.909 49.2667 197.879 50.7413 199.41 51.824C200.941 52.9067 202.845 53.448 205.122 53.448C206.69 53.448 208.071 53.224 209.266 52.776C210.498 52.2907 211.637 51.544 212.682 50.536L217.33 55.576C214.493 58.824 210.349 60.448 204.898 60.448C201.501 60.448 198.495 59.7947 195.882 58.488C193.269 57.144 191.253 55.296 189.834 52.944C188.415 50.592 187.706 47.9227 187.706 44.936C187.706 41.9867 188.397 39.336 189.778 36.984C191.197 34.5947 193.119 32.7467 195.546 31.44C198.01 30.096 200.754 29.424 203.778 29.424C206.727 29.424 209.397 30.0587 211.786 31.328C214.175 32.5973 216.042 34.4267 217.386 36.816C218.767 39.168 219.458 41.912 219.458 45.048ZM203.834 36.032C201.855 36.032 200.194 36.592 198.85 37.712C197.506 38.832 196.685 40.3627 196.386 42.304H211.226C210.927 40.4 210.106 38.888 208.762 37.768C207.418 36.6107 205.775 36.032 203.834 36.032ZM235.41 60.448C232.909 60.448 230.464 60.1493 228.074 59.552C225.685 58.9173 223.781 58.1333 222.362 57.2L225.274 50.928C226.618 51.7867 228.242 52.496 230.146 53.056C232.05 53.5787 233.917 53.84 235.746 53.84C239.442 53.84 241.29 52.9253 241.29 51.096C241.29 50.2373 240.786 49.6213 239.778 49.248C238.77 48.8747 237.221 48.5573 235.13 48.296C232.666 47.9227 230.632 47.4933 229.026 47.008C227.421 46.5227 226.021 45.664 224.826 44.432C223.669 43.2 223.09 41.4453 223.09 39.168C223.09 37.264 223.632 35.584 224.714 34.128C225.834 32.6347 227.44 31.4773 229.53 30.656C231.658 29.8347 234.16 29.424 237.034 29.424C239.162 29.424 241.272 29.6667 243.362 30.152C245.49 30.6 247.245 31.2347 248.626 32.056L245.714 38.272C243.064 36.7787 240.17 36.032 237.034 36.032C235.168 36.032 233.768 36.2933 232.834 36.816C231.901 37.3387 231.434 38.0107 231.434 38.832C231.434 39.7653 231.938 40.4187 232.946 40.792C233.954 41.1653 235.56 41.52 237.762 41.856C240.226 42.2667 242.242 42.7147 243.81 43.2C245.378 43.648 246.741 44.488 247.898 45.72C249.056 46.952 249.634 48.6693 249.634 50.872C249.634 52.7387 249.074 54.4 247.954 55.856C246.834 57.312 245.192 58.4507 243.026 59.272C240.898 60.056 238.36 60.448 235.41 60.448ZM265.16 60.448C262.659 60.448 260.214 60.1493 257.824 59.552C255.435 58.9173 253.531 58.1333 252.112 57.2L255.024 50.928C256.368 51.7867 257.992 52.496 259.896 53.056C261.8 53.5787 263.667 53.84 265.496 53.84C269.192 53.84 271.04 52.9253 271.04 51.096C271.04 50.2373 270.536 49.6213 269.528 49.248C268.52 48.8747 266.971 48.5573 264.88 48.296C262.416 47.9227 260.382 47.4933 258.776 47.008C257.171 46.5227 255.771 45.664 254.576 44.432C253.419 43.2 252.84 41.4453 252.84 39.168C252.84 37.264 253.382 35.584 254.464 34.128C255.584 32.6347 257.19 31.4773 259.28 30.656C261.408 29.8347 263.91 29.424 266.784 29.424C268.912 29.424 271.022 29.6667 273.112 30.152C275.24 30.6 276.995 31.2347 278.376 32.056L275.464 38.272C272.814 36.7787 269.92 36.032 266.784 36.032C264.918 36.032 263.518 36.2933 262.584 36.816C261.651 37.3387 261.184 38.0107 261.184 38.832C261.184 39.7653 261.688 40.4187 262.696 40.792C263.704 41.1653 265.31 41.52 267.512 41.856C269.976 42.2667 271.992 42.7147 273.56 43.2C275.128 43.648 276.491 44.488 277.648 45.72C278.806 46.952 279.384 48.6693 279.384 50.872C279.384 52.7387 278.824 54.4 277.704 55.856C276.584 57.312 274.942 58.4507 272.776 59.272C270.648 60.056 268.11 60.448 265.16 60.448ZM320.01 60.672C316.015 60.672 312.394 59.8133 309.146 58.096C305.935 56.3413 303.396 53.9333 301.53 50.872C299.7 47.7733 298.786 44.2827 298.786 40.4C298.786 36.5173 299.7 33.0453 301.53 29.984C303.396 26.8853 305.935 24.4773 309.146 22.76C312.394 21.0053 316.034 20.128 320.066 20.128C323.463 20.128 326.524 20.7253 329.25 21.92C332.012 23.1147 334.327 24.832 336.194 27.072L330.37 32.448C327.719 29.3867 324.434 27.856 320.514 27.856C318.087 27.856 315.922 28.3973 314.018 29.48C312.114 30.5253 310.62 32 309.538 33.904C308.492 35.808 307.97 37.9733 307.97 40.4C307.97 42.8267 308.492 44.992 309.538 46.896C310.62 48.8 312.114 50.2933 314.018 51.376C315.922 52.4213 318.087 52.944 320.514 52.944C324.434 52.944 327.719 51.3947 330.37 48.296L336.194 53.672C334.327 55.9493 332.012 57.6853 329.25 58.88C326.487 60.0747 323.407 60.672 320.01 60.672ZM370.177 45.048C370.177 45.16 370.121 45.944 370.009 47.4H347.217C347.627 49.2667 348.598 50.7413 350.129 51.824C351.659 52.9067 353.563 53.448 355.841 53.448C357.409 53.448 358.79 53.224 359.985 52.776C361.217 52.2907 362.355 51.544 363.401 50.536L368.049 55.576C365.211 58.824 361.067 60.448 355.617 60.448C352.219 60.448 349.214 59.7947 346.601 58.488C343.987 57.144 341.971 55.296 340.553 52.944C339.134 50.592 338.425 47.9227 338.425 44.936C338.425 41.9867 339.115 39.336 340.497 36.984C341.915 34.5947 343.838 32.7467 346.265 31.44C348.729 30.096 351.473 29.424 354.497 29.424C357.446 29.424 360.115 30.0587 362.505 31.328C364.894 32.5973 366.761 34.4267 368.105 36.816C369.486 39.168 370.177 41.912 370.177 45.048ZM354.553 36.032C352.574 36.032 350.913 36.592 349.569 37.712C348.225 38.832 347.403 40.3627 347.105 42.304H361.945C361.646 40.4 360.825 38.888 359.481 37.768C358.137 36.6107 356.494 36.032 354.553 36.032ZM394.305 29.424C398.038 29.424 401.044 30.544 403.321 32.784C405.636 35.024 406.793 38.3467 406.793 42.752V60H398.057V44.096C398.057 41.7067 397.534 39.9333 396.489 38.776C395.444 37.5813 393.932 36.984 391.953 36.984C389.75 36.984 387.996 37.6747 386.689 39.056C385.382 40.4 384.729 42.416 384.729 45.104V60H375.993V29.872H384.337V33.4C385.494 32.1307 386.932 31.16 388.649 30.488C390.366 29.7787 392.252 29.424 394.305 29.424ZM434.144 58.544C433.285 59.1787 432.221 59.664 430.952 60C429.72 60.2987 428.413 60.448 427.032 60.448C423.448 60.448 420.666 59.5333 418.688 57.704C416.746 55.8747 415.776 53.1867 415.776 49.64V37.264H411.128V30.544H415.776V23.208H424.512V30.544H432.016V37.264H424.512V49.528C424.512 50.7973 424.829 51.7867 425.464 52.496C426.136 53.168 427.069 53.504 428.264 53.504C429.645 53.504 430.821 53.1307 431.792 52.384L434.144 58.544ZM467.63 45.048C467.63 45.16 467.574 45.944 467.462 47.4H444.67C445.081 49.2667 446.051 50.7413 447.582 51.824C449.113 52.9067 451.017 53.448 453.294 53.448C454.862 53.448 456.243 53.224 457.438 52.776C458.67 52.2907 459.809 51.544 460.854 50.536L465.502 55.576C462.665 58.824 458.521 60.448 453.07 60.448C449.673 60.448 446.667 59.7947 444.054 58.488C441.441 57.144 439.425 55.296 438.006 52.944C436.587 50.592 435.878 47.9227 435.878 44.936C435.878 41.9867 436.569 39.336 437.95 36.984C439.369 34.5947 441.291 32.7467 443.718 31.44C446.182 30.096 448.926 29.424 451.95 29.424C454.899 29.424 457.569 30.0587 459.958 31.328C462.347 32.5973 464.214 34.4267 465.558 36.816C466.939 39.168 467.63 41.912 467.63 45.048ZM452.006 36.032C450.027 36.032 448.366 36.592 447.022 37.712C445.678 38.832 444.857 40.3627 444.558 42.304H459.398C459.099 40.4 458.278 38.888 456.934 37.768C455.59 36.6107 453.947 36.032 452.006 36.032ZM481.79 33.848C482.835 32.392 484.235 31.2907 485.99 30.544C487.782 29.7973 489.835 29.424 492.15 29.424V37.488C491.179 37.4133 490.526 37.376 490.19 37.376C487.689 37.376 485.729 38.0853 484.31 39.504C482.891 40.8853 482.182 42.976 482.182 45.776V60H473.446V29.872H481.79V33.848Z" fill="#873F91"/>
</g>
<defs>
<filter id="filter0_d_3_4" x="229.737" y="86.16" width="102.909" height="23" filterUnits="userSpaceOnUse" color-interpolation-filters="sRGB">
<feFlood flood-opacity="0" result="BackgroundImageFix"/>
<feColorMatrix in="SourceAlpha" type="matrix" values="0 0 0 0 0 0 0 0 0 0 0 0 0 0 0 0 0 0 127 0" result="hardAlpha"/>
<feOffset dy="4"/>
<feGaussianBlur stdDeviation="2"/>
<feComposite in2="hardAlpha" operator="out"/>
<feColorMatrix type="matrix" values="0 0 0 0 0 0 0 0 0 0 0 0 0 0 0 0 0 0 0.25 0"/>
<feBlend mode="normal" in2="BackgroundImageFix" result="effect1_dropShadow_3_4"/>
<feBlend mode="normal" in="SourceGraphic" in2="effect1_dropShadow_3_4" result="shape"/>
</filter>
<filter id="filter1_d_3_4" x="71.1167" y="15.928" width="425.033" height="52.744" filterUnits="userSpaceOnUse" color-interpolation-filters="sRGB">
<feFlood flood-opacity="0" result="BackgroundImageFix"/>
<feColorMatrix in="SourceAlpha" type="matrix" values="0 0 0 0 0 0 0 0 0 0 0 0 0 0 0 0 0 0 127 0" result="hardAlpha"/>
<feOffset dy="4"/>
<feGaussianBlur stdDeviation="2"/>
<feComposite in2="hardAlpha" operator="out"/>
<feColorMatrix type="matrix" values="0 0 0 0 0 0 0 0 0 0 0 0 0 0 0 0 0 0 0.25 0"/>
<feBlend mode="normal" in2="BackgroundImageFix" result="effect1_dropShadow_3_4"/>
<feBlend mode="normal" in="SourceGraphic" in2="effect1_dropShadow_3_4" result="shape"/>
</filter>
</defs>
</svg>
